<mxfile host="app.diagrams.net" modified="2021-04-22T09:17:34.766Z" agent="5.0 (Windows NT 10.0; Win64; x64) AppleWebKit/537.36 (KHTML, like Gecko) Chrome/89.0.4389.128 Safari/537.36" etag="6ZDBz8W2KoJl1j3xkAPH" version="14.6.3" type="github">
  <diagram id="E4pu_rwrLomB39f6dgDt" name="Page-1">
    <mxGraphModel dx="1422" dy="794" grid="1" gridSize="10" guides="1" tooltips="1" connect="1" arrows="1" fold="1" page="1" pageScale="1" pageWidth="827" pageHeight="1169" math="0" shadow="0">
      <root>
        <mxCell id="0" />
        <mxCell id="1" parent="0" />
        <mxCell id="CXSvPSvRkw78HtXeZLOZ-41" value="" style="group" vertex="1" connectable="0" parent="1">
          <mxGeometry x="109" y="454" width="610" height="700" as="geometry" />
        </mxCell>
        <mxCell id="CXSvPSvRkw78HtXeZLOZ-10" value="" style="whiteSpace=wrap;html=1;rounded=0;" vertex="1" parent="CXSvPSvRkw78HtXeZLOZ-41">
          <mxGeometry y="11.475409836065573" width="610" height="700" as="geometry" />
        </mxCell>
        <mxCell id="CXSvPSvRkw78HtXeZLOZ-12" value="Résolution du Rubik&#39;s Cube : commandinterpreterToRubix.vi" style="text;html=1;strokeColor=none;fillColor=none;align=center;verticalAlign=middle;whiteSpace=wrap;rounded=0;" vertex="1" parent="CXSvPSvRkw78HtXeZLOZ-41">
          <mxGeometry y="11.475757575757575" width="356" height="29.286538905564537" as="geometry" />
        </mxCell>
        <mxCell id="CXSvPSvRkw78HtXeZLOZ-62" style="edgeStyle=orthogonalEdgeStyle;rounded=0;orthogonalLoop=1;jettySize=auto;html=1;exitX=0.5;exitY=1;exitDx=0;exitDy=0;entryX=0.5;entryY=0;entryDx=0;entryDy=0;" edge="1" parent="CXSvPSvRkw78HtXeZLOZ-41" source="CXSvPSvRkw78HtXeZLOZ-13" target="CXSvPSvRkw78HtXeZLOZ-25">
          <mxGeometry relative="1" as="geometry" />
        </mxCell>
        <mxCell id="CXSvPSvRkw78HtXeZLOZ-13" value="Traduction d&#39;une commande du SwitchCase &quot;L, F, D...&quot; en mouvements moteurs" style="rounded=0;whiteSpace=wrap;html=1;" vertex="1" parent="CXSvPSvRkw78HtXeZLOZ-41">
          <mxGeometry x="192.5" y="201.5151515151515" width="175" height="74.24242424242424" as="geometry" />
        </mxCell>
        <mxCell id="CXSvPSvRkw78HtXeZLOZ-54" style="edgeStyle=orthogonalEdgeStyle;rounded=0;orthogonalLoop=1;jettySize=auto;html=1;exitX=0;exitY=0.5;exitDx=0;exitDy=0;entryX=0;entryY=0.5;entryDx=0;entryDy=0;" edge="1" parent="CXSvPSvRkw78HtXeZLOZ-41" source="CXSvPSvRkw78HtXeZLOZ-17" target="CXSvPSvRkw78HtXeZLOZ-25">
          <mxGeometry relative="1" as="geometry" />
        </mxCell>
        <mxCell id="CXSvPSvRkw78HtXeZLOZ-17" value="Encodeur &amp;gt;= 300 ?" style="rhombus;whiteSpace=wrap;html=1;" vertex="1" parent="CXSvPSvRkw78HtXeZLOZ-41">
          <mxGeometry x="214.13" y="410.0033879781421" width="130" height="114.75409836065573" as="geometry" />
        </mxCell>
        <mxCell id="CXSvPSvRkw78HtXeZLOZ-47" style="edgeStyle=orthogonalEdgeStyle;rounded=0;orthogonalLoop=1;jettySize=auto;html=1;exitX=0.5;exitY=1;exitDx=0;exitDy=0;entryX=0.5;entryY=0;entryDx=0;entryDy=0;" edge="1" parent="CXSvPSvRkw78HtXeZLOZ-41" source="CXSvPSvRkw78HtXeZLOZ-25" target="CXSvPSvRkw78HtXeZLOZ-17">
          <mxGeometry relative="1" as="geometry" />
        </mxCell>
        <mxCell id="CXSvPSvRkw78HtXeZLOZ-25" value="Un moteur tourne" style="rounded=0;whiteSpace=wrap;html=1;" vertex="1" parent="CXSvPSvRkw78HtXeZLOZ-41">
          <mxGeometry x="220" y="310.00311475409836" width="120" height="68.85245901639344" as="geometry" />
        </mxCell>
        <mxCell id="CXSvPSvRkw78HtXeZLOZ-57" style="edgeStyle=orthogonalEdgeStyle;rounded=0;orthogonalLoop=1;jettySize=auto;html=1;entryX=1;entryY=0.5;entryDx=0;entryDy=0;exitX=1;exitY=0.5;exitDx=0;exitDy=0;" edge="1" parent="CXSvPSvRkw78HtXeZLOZ-41" source="CXSvPSvRkw78HtXeZLOZ-17" target="CXSvPSvRkw78HtXeZLOZ-56">
          <mxGeometry relative="1" as="geometry">
            <Array as="points">
              <mxPoint x="431" y="467" />
              <mxPoint x="431" y="88" />
            </Array>
          </mxGeometry>
        </mxCell>
        <mxCell id="CXSvPSvRkw78HtXeZLOZ-21" value="Oui" style="text;html=1;strokeColor=none;fillColor=none;align=center;verticalAlign=middle;whiteSpace=wrap;rounded=0;" vertex="1" parent="CXSvPSvRkw78HtXeZLOZ-41">
          <mxGeometry x="344.13" y="469.9986835568803" width="40" height="22.950819672131146" as="geometry" />
        </mxCell>
        <mxCell id="CXSvPSvRkw78HtXeZLOZ-58" style="edgeStyle=orthogonalEdgeStyle;rounded=0;orthogonalLoop=1;jettySize=auto;html=1;exitX=0.5;exitY=1;exitDx=0;exitDy=0;entryX=0.5;entryY=0;entryDx=0;entryDy=0;" edge="1" parent="CXSvPSvRkw78HtXeZLOZ-41" source="CXSvPSvRkw78HtXeZLOZ-56" target="CXSvPSvRkw78HtXeZLOZ-13">
          <mxGeometry relative="1" as="geometry" />
        </mxCell>
        <mxCell id="CXSvPSvRkw78HtXeZLOZ-56" value="Cube résolu ?&amp;nbsp;" style="rhombus;whiteSpace=wrap;html=1;" vertex="1" parent="CXSvPSvRkw78HtXeZLOZ-41">
          <mxGeometry x="227.25" y="45.9" width="103.75" height="84.1" as="geometry" />
        </mxCell>
        <mxCell id="CXSvPSvRkw78HtXeZLOZ-59" value="Non" style="text;html=1;strokeColor=none;fillColor=none;align=center;verticalAlign=middle;whiteSpace=wrap;rounded=0;" vertex="1" parent="CXSvPSvRkw78HtXeZLOZ-41">
          <mxGeometry x="276" y="129.99573770491804" width="40" height="22.950819672131146" as="geometry" />
        </mxCell>
        <mxCell id="CXSvPSvRkw78HtXeZLOZ-60" value="Oui" style="text;html=1;strokeColor=none;fillColor=none;align=center;verticalAlign=middle;whiteSpace=wrap;rounded=0;" vertex="1" parent="CXSvPSvRkw78HtXeZLOZ-41">
          <mxGeometry x="186.25" y="83.32786885245902" width="40" height="22.950819672131146" as="geometry" />
        </mxCell>
        <mxCell id="CXSvPSvRkw78HtXeZLOZ-51" value="Fin" style="rounded=0;whiteSpace=wrap;html=1;" vertex="1" parent="CXSvPSvRkw78HtXeZLOZ-41">
          <mxGeometry x="236" y="630" width="120" height="60" as="geometry" />
        </mxCell>
        <mxCell id="CXSvPSvRkw78HtXeZLOZ-52" style="edgeStyle=orthogonalEdgeStyle;rounded=0;orthogonalLoop=1;jettySize=auto;html=1;exitX=0;exitY=0.5;exitDx=0;exitDy=0;entryX=0.5;entryY=0;entryDx=0;entryDy=0;" edge="1" parent="CXSvPSvRkw78HtXeZLOZ-41" source="CXSvPSvRkw78HtXeZLOZ-56" target="CXSvPSvRkw78HtXeZLOZ-51">
          <mxGeometry relative="1" as="geometry">
            <mxPoint x="206.25" y="300" as="sourcePoint" />
            <Array as="points">
              <mxPoint x="141" y="88" />
              <mxPoint x="141" y="600" />
              <mxPoint x="296" y="600" />
            </Array>
          </mxGeometry>
        </mxCell>
        <mxCell id="CXSvPSvRkw78HtXeZLOZ-32" value="" style="group" vertex="1" connectable="0" parent="CXSvPSvRkw78HtXeZLOZ-41">
          <mxGeometry x="180" y="469.99781420765026" width="40" height="22.950819672131146" as="geometry" />
        </mxCell>
        <mxCell id="CXSvPSvRkw78HtXeZLOZ-23" value="Non" style="text;html=1;strokeColor=none;fillColor=none;align=center;verticalAlign=middle;whiteSpace=wrap;rounded=0;" vertex="1" parent="CXSvPSvRkw78HtXeZLOZ-32">
          <mxGeometry width="40" height="22.950819672131146" as="geometry" />
        </mxCell>
        <mxCell id="CXSvPSvRkw78HtXeZLOZ-5" value="" style="edgeStyle=orthogonalEdgeStyle;rounded=0;orthogonalLoop=1;jettySize=auto;html=1;" edge="1" parent="1" source="CXSvPSvRkw78HtXeZLOZ-1" target="CXSvPSvRkw78HtXeZLOZ-4">
          <mxGeometry relative="1" as="geometry" />
        </mxCell>
        <mxCell id="CXSvPSvRkw78HtXeZLOZ-1" value="Acquisition d&#39;une image pour chaque caméra" style="rounded=0;whiteSpace=wrap;html=1;" vertex="1" parent="1">
          <mxGeometry x="244" y="5" width="190" height="60" as="geometry" />
        </mxCell>
        <mxCell id="CXSvPSvRkw78HtXeZLOZ-7" value="" style="edgeStyle=orthogonalEdgeStyle;rounded=0;orthogonalLoop=1;jettySize=auto;html=1;" edge="1" parent="1" source="CXSvPSvRkw78HtXeZLOZ-4" target="CXSvPSvRkw78HtXeZLOZ-6">
          <mxGeometry relative="1" as="geometry" />
        </mxCell>
        <mxCell id="CXSvPSvRkw78HtXeZLOZ-4" value="Traitement des images, filtre des couleurs et ROI" style="whiteSpace=wrap;html=1;rounded=0;" vertex="1" parent="1">
          <mxGeometry x="279" y="135" width="120" height="60" as="geometry" />
        </mxCell>
        <mxCell id="CXSvPSvRkw78HtXeZLOZ-40" style="edgeStyle=orthogonalEdgeStyle;rounded=0;orthogonalLoop=1;jettySize=auto;html=1;exitX=0.5;exitY=1;exitDx=0;exitDy=0;" edge="1" parent="1" source="CXSvPSvRkw78HtXeZLOZ-6">
          <mxGeometry relative="1" as="geometry">
            <mxPoint x="414" y="345" as="targetPoint" />
          </mxGeometry>
        </mxCell>
        <mxCell id="CXSvPSvRkw78HtXeZLOZ-6" value="Conversion en tableau 2D des couleurs&amp;nbsp;" style="whiteSpace=wrap;html=1;rounded=0;" vertex="1" parent="1">
          <mxGeometry x="279" y="235" width="120" height="60" as="geometry" />
        </mxCell>
        <mxCell id="CXSvPSvRkw78HtXeZLOZ-11" value="" style="edgeStyle=orthogonalEdgeStyle;rounded=0;orthogonalLoop=1;jettySize=auto;html=1;" edge="1" parent="1" source="CXSvPSvRkw78HtXeZLOZ-8" target="CXSvPSvRkw78HtXeZLOZ-10">
          <mxGeometry relative="1" as="geometry" />
        </mxCell>
        <mxCell id="CXSvPSvRkw78HtXeZLOZ-8" value="Init.vi" style="whiteSpace=wrap;html=1;rounded=0;" vertex="1" parent="1">
          <mxGeometry x="354" y="345" width="120" height="60" as="geometry" />
        </mxCell>
        <mxCell id="CXSvPSvRkw78HtXeZLOZ-39" style="edgeStyle=orthogonalEdgeStyle;rounded=0;orthogonalLoop=1;jettySize=auto;html=1;exitX=0.5;exitY=1;exitDx=0;exitDy=0;entryX=0.5;entryY=0;entryDx=0;entryDy=0;" edge="1" parent="1" source="CXSvPSvRkw78HtXeZLOZ-38" target="CXSvPSvRkw78HtXeZLOZ-8">
          <mxGeometry relative="1" as="geometry" />
        </mxCell>
        <mxCell id="CXSvPSvRkw78HtXeZLOZ-38" value="Initialisation des moteurs" style="rounded=0;whiteSpace=wrap;html=1;" vertex="1" parent="1">
          <mxGeometry x="424" y="235" width="120" height="60" as="geometry" />
        </mxCell>
      </root>
    </mxGraphModel>
  </diagram>
</mxfile>
